<svg height="48px" viewBox="-31 0 511 512" width="48px" xmlns="http://www.w3.org/2000/svg"><path fill="#42bbe3" d="m270.492188 512v-62h75c24.8125 0 45-20.1875 45-45v-15h60v-30h-60v-30h59.847656l-59.875-138.167969c-1.527344-94.761719-71.605469-175.109375-164.972656-189.53125v-2.300781h-90v9.132812c-64.363282 20.355469-116.6875 75.613282-130.828126 144.972657-13.769531 67.527343 7.070313 134.898437 55.828126 181.613281v176.28125zm90-317v3.109375l44.152343 101.890625h-44.152343v60h-67.5l-58.523438-78.027344c21.859375-16.4375 36.023438-42.582031 36.023438-71.972656 0-33.242188-18.121094-62.335938-45-77.917969v-99.355469c77.550781 14.234376 135 82.496094 135 162.273438zm-180-45c33.082031 0 60 26.914062 60 60s-26.917969 60-60 60c-33.085938 0-60-26.914062-60-60s26.914062-60 60-60zm15-120v91.257812c-4.878907-.824218-9.890626-1.257812-15-1.257812-5.109376 0-10.121094.433594-15 1.257812v-91.257812zm-161.433594 130.097656c10.933594-53.628906 50.621094-99.441406 101.433594-119.144531v91.128906c-26.878907 15.582031-45 44.671875-45 77.917969 0 49.625 40.375 90 90 90 9.371093 0 18.414062-1.441406 26.914062-4.113281l70.585938 94.113281h82.5v15c0 8.269531-6.730469 15-15 15h-105v62h-150v-159.539062c-1.132813-1.707032-77.734376-57.914063-56.433594-162.363282zm0 0"/><path fill="#42bbe3" d="m180.492188 240c16.542968 0 30-13.457031 30-30s-13.457032-30-30-30c-16.542969 0-30 13.457031-30 30s13.457031 30 30 30zm0 0"/></svg>