<svg height="48px" viewBox="0 0 512 512" width="48px" xmlns="http://www.w3.org/2000/svg"><path fill="#42bbe3" d="m421 267.363281-30-30-120 120v154.636719h120v-53.695312l121-120v-217.304688h-91zm30-116.363281h31v174.804688l-121 120v36.195312h-60v-112.207031l90-90 21.210938 21.207031-56.863282 56.859375 21.214844 21.214844 78.074219-78.074219-3.636719-3.636719zm0 0"/><path fill="#42bbe3" d="m91 267.363281v-146.363281h-91v217.304688l121 120v53.695312h120v-154.636719l-120-120zm120 214.636719h-60v-36.195312l-121-120v-174.804688h31v146.363281l-3.636719 3.636719 78.074219 78.074219 21.214844-21.214844-56.863282-56.859375 21.210938-21.207031 90 90zm0 0"/><path fill="#42bbe3" d="m151 211h210v-211h-210zm90-181h30v30h-30zm-60 0h30v60h90v-60h30v151h-150zm0 0"/></svg>