<?xml version="1.0" encoding="iso-8859-1"?>
<!-- Generator: Adobe Illustrator 19.0.0, SVG Export Plug-In . SVG Version: 6.00 Build 0)  -->
<svg version="1.1" id="Capa_1" xmlns="http://www.w3.org/2000/svg" xmlns:xlink="http://www.w3.org/1999/xlink" x="0px" y="0px"
	 viewBox="0 0 512.001 512.001" style="enable-background:new 0 0 512.001 512.001;" xml:space="preserve">
<g>
	<g>
		<path d="M206,136c-5.52,0-10,4.48-10,10s4.48,10,10,10s10-4.48,10-10S211.521,136,206,136z"/>
	</g>
</g>
<g>
	<g>
		<path d="M491.375,157.662c-13.149-30.297-31.855-57.697-55.598-81.439c-23.742-23.742-51.143-42.448-81.438-55.598
			C322.81,6.939,289.724,0,256,0h-30c-4.662,0-8.705,3.221-9.747,7.765l-15.259,66.542c-12.087,3.655-23.726,8.473-34.727,14.374
			l-53.611-32.174c-3.936-2.361-8.972-1.743-12.217,1.503L58.01,100.44c-3.245,3.245-3.865,8.282-1.503,12.217l32.174,53.611
			c-5.905,11.007-10.719,22.646-14.367,34.727L7.766,216.253C3.221,217.295,0,221.338,0,226v60c0,4.662,3.221,8.705,7.765,9.747
			l66.548,15.259c3.647,12.082,8.462,23.72,14.367,34.727l-32.174,53.611c-2.362,3.935-1.742,8.972,1.503,12.217l42.429,42.43
			c3.245,3.245,8.282,3.866,12.217,1.503l53.611-32.174c11.001,5.901,22.639,10.718,34.727,14.374l15.259,66.542
			c1.042,4.543,5.085,7.765,9.747,7.765h30c33.723,0,66.809-6.939,98.339-20.625c30.296-13.15,57.696-31.856,81.438-55.598
			s42.448-51.142,55.598-81.439C505.062,322.809,512,289.723,512,256C512,222.277,505.062,189.191,491.375,157.662z M246,325.274
			c-33.877-4.868-60-34.072-60-69.274c0-35.202,26.123-64.406,60-69.274V325.274z M246,166.559c-44.937,4.991-80,43.196-80,89.441
			s35.063,84.451,80,89.441v20.099c-55.985-5.07-100-52.258-100-109.541c0-30.379,12.157-58.675,34.232-79.675
			c4.001-3.807,4.159-10.136,0.353-14.138c-3.806-4.001-10.135-4.159-14.138-0.353C140.365,186.647,126,220.089,126,256
			c0,68.318,52.972,124.496,120,129.619V492h-12.034l-14.799-64.535c-0.828-3.607-3.58-6.463-7.155-7.423
			c-14.435-3.875-28.204-9.57-40.925-16.928c-3.147-1.821-7.035-1.79-10.153,0.082l-51.875,31.132L77.672,402.94l31.132-51.875
			c1.871-3.118,1.902-7.005,0.082-10.153c-7.364-12.73-13.055-26.498-16.917-40.919c-0.958-3.578-3.814-6.333-7.425-7.161
			L20,278.033v-44.066l64.545-14.8c3.61-0.828,6.467-3.583,7.425-7.161c3.861-14.422,9.553-28.189,16.917-40.919
			c1.82-3.147,1.789-7.035-0.082-10.153L77.672,109.06l31.387-31.387l51.875,31.132c3.117,1.871,7.005,1.902,10.153,0.082
			c12.721-7.358,26.49-13.054,40.925-16.928c3.575-0.959,6.327-3.815,7.155-7.423L233.966,20H246V166.559z M422.953,91.039
			c-15.054,7.692-32.124,14.277-50.906,19.633c-3.425-2.178-7.314-3.687-11.489-4.326C349.3,76.841,335.066,51.835,319.18,33.735
			c-1.966-2.24-3.959-4.367-5.973-6.391C355.154,38.243,392.995,60.736,422.953,91.039z M375.784,246.008
			c0.083-0.001,0.165-0.004,0.247-0.008c5.5,0.017,9.97,4.496,9.97,10c0,5.487-4.442,9.956-9.978,10
			c-0.079-0.003-0.159-0.006-0.239-0.007C370.39,265.888,366,261.405,366,256C366,250.595,370.39,246.112,375.784,246.008z
			 M360.327,145.018c-1.354,0.651-2.81,0.982-4.325,0.982c-5.514,0-10-4.486-10-10c-0.001-1.223,0.213-2.411,0.634-3.526
			c1.319-3.492,4.424-5.939,8.103-6.387c0.048-0.006,0.096-0.012,0.144-0.019c0.338-0.046,0.704-0.068,1.119-0.068
			c5.514,0,10,4.486,10,10C366.002,139.883,363.831,143.337,360.327,145.018z M266,145.897c3.476-0.07,6.954-0.174,10.409-0.315
			c5.519-0.226,9.809-4.883,9.582-10.401c-0.226-5.518-4.894-9.805-10.4-9.583c-3.184,0.13-6.388,0.227-9.591,0.294V21.216
			c27.453,6.5,54.973,39.168,74.608,89.017c-4.009,2.39-7.428,5.702-9.958,9.708c-5.291,0.887-10.628,1.68-15.926,2.362
			c-5.478,0.705-9.347,5.717-8.642,11.194c0.648,5.045,4.95,8.725,9.905,8.725c0.426,0,0.855-0.027,1.289-0.083
			c3.033-0.39,6.079-0.822,9.123-1.279c2.33,14.238,14.713,25.14,29.6,25.14c0.355,0,0.708-0.017,1.061-0.029
			c4.128,19.845,6.842,40.653,8.11,62.074c-8.086,3.168-14.499,9.77-17.432,17.955H266V145.897z M266.001,490.747v-104.64
			c3.203,0.067,6.407,0.164,9.591,0.294c0.14,0.006,0.278,0.008,0.416,0.008c5.334,0,9.765-4.212,9.984-9.591
			c0.227-5.518-4.063-10.175-9.582-10.401c-3.455-0.142-6.933-0.246-10.409-0.315V266h81.739
			c2.933,8.185,9.346,14.787,17.431,17.955c-1.711,29.005-6.038,56.613-12.899,82.285c-5.776,0.72-11.049,3.079-15.329,6.608
			c-6.454-1.125-13.042-2.13-19.661-2.985c-5.478-0.705-10.491,3.158-11.2,8.636c-0.708,5.477,3.159,10.491,8.636,11.199
			c3.9,0.504,7.788,1.062,11.642,1.667c-0.235,1.512-0.359,3.06-0.359,4.636c0,7.788,3.011,15.104,8.179,20.578
			C314.756,458.171,290.097,484.853,266.001,490.747z M366,396c0,5.514-4.486,10-10,10c-1.654,0-3.287-0.412-4.75-1.205
			c-3.238-1.743-5.25-5.113-5.25-8.795c0-5.514,4.486-10,10-10c0.642,0,1.292,0.063,1.934,0.187
			C362.609,387.096,366,391.223,366,396z M312.479,484.848c14.474-14.454,27.884-34.399,39.5-59.128
			c1.33,0.18,2.673,0.28,4.021,0.28c13.349,0,24.686-8.767,28.566-20.844c13.904,4.57,26.75,9.863,38.384,15.808
			C392.82,451.441,354.714,474.021,312.479,484.848z M436.854,405.675c-15.811-8.534-33.755-15.87-53.451-21.856
			c-2.44-5.473-6.476-10.121-11.576-13.298c7.117-26.893,11.596-55.73,13.343-85.959c8.899-2.864,15.994-9.777,19.11-18.561H416
			c5.522,0,10-4.477,10-10s-4.478-10-10-10h-11.72c-3.115-8.784-10.211-15.698-19.111-18.562
			c-1.383-23.843-4.492-46.991-9.27-69.009C382.2,152.811,386,144.65,386,136c0-2.867-0.413-5.638-1.167-8.266
			c19.145-5.904,36.587-13.079,52.019-21.41c32.224,38.62,52.599,87.255,54.913,139.677H456c-5.522,0-10,4.477-10,10
			c0,5.523,4.478,10,10,10h35.765C489.451,318.421,469.078,367.055,436.854,405.675z"/>
	</g>
</g>
<g>
</g>
<g>
</g>
<g>
</g>
<g>
</g>
<g>
</g>
<g>
</g>
<g>
</g>
<g>
</g>
<g>
</g>
<g>
</g>
<g>
</g>
<g>
</g>
<g>
</g>
<g>
</g>
<g>
</g>
</svg>
