<?xml version="1.0" encoding="iso-8859-1"?>
<!-- Generator: Adobe Illustrator 19.0.0, SVG Export Plug-In . SVG Version: 6.00 Build 0)  -->
<svg version="1.1" id="Capa_1" xmlns="http://www.w3.org/2000/svg" xmlns:xlink="http://www.w3.org/1999/xlink" x="0px" y="0px"
	 viewBox="0 0 512 512" style="enable-background:new 0 0 512 512;" xml:space="preserve">
<g>
	<g>
		<path fill="#007dc4" d="M416,472c-5.52,0-10,4.48-10,10c0,5.52,4.48,10,10,10c5.52,0,10-4.48,10-10C426,476.48,421.52,472,416,472z"/>
	</g>
</g>
<g>
	<g>
		<path fill="#007dc4" d="M96,212c-5.52,0-10,4.48-10,10s4.48,10,10,10s10-4.48,10-10S101.52,212,96,212z"/>
	</g>
</g>
<g>
	<g>
		<path fill="#007dc4" d="M357.601,376.019l-22.473-12.977C335.713,359.231,336,355.577,336,352c0-3.577-0.287-7.231-0.872-11.043l22.473-12.977
			c4.782-2.762,6.421-8.878,3.659-13.66l-20-34.641c-1.326-2.297-3.511-3.973-6.072-4.659c-2.561-0.686-5.29-0.327-7.589,0.999
			l-22.562,13.028c-5.76-4.465-12.126-8.101-19.037-10.872V252c0-5.522-4.478-10-10-10h-40c-5.522,0-10,4.478-10,10v26.188
			c-6.861,2.772-13.284,6.442-19.019,10.866l-22.582-13.035c-4.781-2.758-10.897-1.121-13.659,3.661l-20,34.641
			c-2.762,4.782-1.123,10.898,3.659,13.66l22.473,12.977C176.287,344.769,176,348.423,176,352c0,3.577,0.287,7.231,0.872,11.043
			l-22.473,12.977c-4.782,2.762-6.421,8.878-3.659,13.66l20,34.641c2.761,4.781,8.873,6.42,13.659,3.661l22.582-13.035
			c5.734,4.424,12.157,8.094,19.019,10.866V452c0,5.522,4.478,10,10,10h40c5.522,0,10-4.478,10-10v-26.175
			c6.911-2.771,13.277-6.407,19.037-10.873l22.562,13.028c2.298,1.326,5.026,1.687,7.589,0.999c2.562-0.687,4.746-2.362,6.072-4.659
			l20-34.641C364.022,384.897,362.383,378.781,357.601,376.019z M328.94,405.66l-20.019-11.56c-3.827-2.209-8.65-1.646-11.864,1.388
			c-6.68,6.303-14.734,10.904-23.94,13.678c-4.225,1.272-7.116,5.163-7.116,9.575V442h-20v-23.26c0-4.412-2.892-8.303-7.116-9.575
			c-9.209-2.773-17.259-7.374-23.926-13.674c-3.213-3.035-8.039-3.603-11.867-1.393l-20.03,11.563l-10-17.322l20-11.549
			c3.829-2.212,5.752-6.677,4.727-10.979C196.585,360.766,196,356.248,196,352s0.585-8.766,1.787-13.812
			c1.025-4.302-0.897-8.767-4.727-10.979l-20-11.549l10-17.322l20.03,11.563c3.827,2.21,8.653,1.644,11.867-1.393
			c6.667-6.3,14.717-10.9,23.926-13.674c4.225-1.272,7.116-5.163,7.116-9.575V262h20v23.26c0,4.412,2.892,8.303,7.116,9.575
			c9.206,2.773,17.261,7.375,23.94,13.678c3.213,3.033,8.035,3.598,11.864,1.388l20.02-11.56l10,17.32l-20,11.549
			c-3.829,2.212-5.752,6.677-4.727,10.979C315.415,343.234,316,347.752,316,352s-0.585,8.766-1.787,13.812
			c-1.025,4.302,0.897,8.767,4.727,10.979l20,11.549L328.94,405.66z"/>
	</g>
</g>
<g>
	<g>
		<path fill="#007dc4" d="M256,312c-22.056,0-40,17.944-40,40c0,22.056,17.944,40,40,40c22.056,0,40-17.944,40-40C296,329.944,278.056,312,256,312z
			 M256,372c-11.028,0-20-8.972-20-20s8.972-20,20-20s20,8.972,20,20S267.028,372,256,372z"/>
	</g>
</g>
<g>
	<g>
		<path fill="#007dc4" d="M443.339,236.747c-2.901-4.699-9.062-6.157-13.762-3.257c-4.699,2.901-6.157,9.063-3.257,13.763
			C445.737,278.706,456,314.927,456,352c0,29.971-6.496,58.804-19.309,85.699c-2.375,4.986-0.259,10.954,4.728,13.329
			c1.389,0.661,2.853,0.974,4.294,0.974c3.736,0,7.321-2.104,9.035-5.701C468.85,416.697,476,384.97,476,352
			C476,311.214,464.706,271.36,443.339,236.747z"/>
	</g>
</g>
<g>
	<g>
		<path fill="#007dc4" d="M85.688,456.745C66.266,425.299,56,389.078,56,352c0-29.971,6.496-58.804,19.309-85.699
			c2.375-4.987,0.257-10.954-4.728-13.329c-4.987-2.376-10.954-0.258-13.329,4.728C43.15,287.303,36,319.03,36,352
			c0,40.793,11.298,80.647,32.672,115.255c1.891,3.062,5.165,4.746,8.518,4.746c1.793,0,3.607-0.481,5.245-1.493
			C87.133,467.607,88.59,461.445,85.688,456.745z"/>
	</g>
</g>
<g>
	<g>
		<path fill="#007dc4" d="M339.514,215.58l25.365-48.982c0.737-1.42,1.121-2.997,1.121-4.598v-62h10c27.57,0,50-22.43,50-50S403.57,0,376,0H136
			c-27.57,0-50,22.43-50,50s22.43,50,50,50h10v62c0,1.553,0.361,3.084,1.056,4.473l24.764,49.519C124.822,245.14,96,296.393,96,352
			c0,88.225,71.775,160,160,160s160-71.775,160-160C416,296.038,386.929,244.644,339.514,215.58z M346,159.564l-24.15,46.634
			c-5.176-2.347-10.469-4.419-15.85-6.195V60h40V159.564z M146,50v30h-10c-16.542,0-30-13.458-30-30s13.458-30,30-30h240
			c16.542,0,30,13.458,30,30s-13.458,30-30,30h-10V50c0-5.522-4.478-10-10-10H156C150.478,40,146,44.478,146,50z M286,60v134.84
			c-9.847-1.874-19.891-2.84-30-2.84c-10.093,0-20.134,0.969-30,2.845V60H286z M166,159.639V60h40v140.011
			c-5.627,1.858-11.157,4.033-16.555,6.51L166,159.639z M256,492c-77.196,0-140-62.804-140-140
			c0-51.49,28.245-98.732,73.708-123.289c9.195-4.96,18.94-8.885,28.955-11.662C230.787,213.698,243.35,212,256,212
			c12.477,0,24.838,1.645,36.746,4.89c9.938,2.703,19.617,6.541,28.768,11.408c0,0.001,0,0.001,0.001,0.001
			C367.459,252.734,396,300.134,396,352C396,429.196,333.196,492,256,492z"/>
	</g>
</g>
<g>
</g>
<g>
</g>
<g>
</g>
<g>
</g>
<g>
</g>
<g>
</g>
<g>
</g>
<g>
</g>
<g>
</g>
<g>
</g>
<g>
</g>
<g>
</g>
<g>
</g>
<g>
</g>
<g>
</g>
</svg>
