<?xml version="1.0" encoding="iso-8859-1"?>
<!-- Generator: Adobe Illustrator 19.0.0, SVG Export Plug-In . SVG Version: 6.00 Build 0)  -->
<svg version="1.1" id="Capa_1" xmlns="http://www.w3.org/2000/svg" xmlns:xlink="http://www.w3.org/1999/xlink" x="0px" y="0px"
	 viewBox="0 0 512 512" style="enable-background:new 0 0 512 512;" xml:space="preserve">
<g>
	<g>
		<path fill="#007dc4" d="M436,40c-5.52,0-10,4.48-10,10s4.48,10,10,10c5.52,0,10-4.48,10-10S441.52,40,436,40z"/>
	</g>
</g>
<g>
	<g>
		<path fill="#007dc4" d="M436,280c-5.52,0-10,4.48-10,10c0,5.52,4.48,10,10,10c5.52,0,10-4.48,10-10C446,284.48,441.52,280,436,280z"/>
	</g>
</g>
<g>
	<g>
		<path fill="#007dc4" d="M76,40c-5.52,0-10,4.48-10,10s4.48,10,10,10s10-4.48,10-10S81.52,40,76,40z"/>
	</g>
</g>
<g>
	<g>
		<path fill="#007dc4" d="M76,280c-5.52,0-10,4.48-10,10c0,5.52,4.48,10,10,10s10-4.48,10-10C86,284.48,81.52,280,76,280z"/>
	</g>
</g>
<g>
	<g>
		<path fill="#007dc4" d="M254,129c-22.056,0-40,17.944-40,40c0,22.056,17.944,40,40,40c22.056,0,40-17.944,40-40C294,146.944,276.055,129,254,129z
			 M254,189c-11.028,0-20-8.972-20-20s8.972-20,20-20s20,8.972,20,20S265.028,189,254,189z"/>
	</g>
</g>
<g>
	<g>
		<path fill="#007dc4" d="M357.6,194.02l-22.473-12.977C335.713,177.231,336,173.577,336,170c0-3.577-0.287-7.231-0.872-11.043L357.6,145.98
			c4.782-2.762,6.421-8.878,3.659-13.66l-20-34.641c-1.326-2.297-3.511-3.973-6.072-4.659c-2.561-0.686-5.291-0.327-7.589,0.999
			l-22.562,13.028c-5.76-4.466-12.126-8.102-19.037-10.873V70c0-5.522-4.478-10-10-10h-40c-5.523,0-10,4.478-10,10v26.188
			c-6.861,2.772-13.284,6.442-19.019,10.866l-22.582-13.035c-4.782-2.759-10.898-1.121-13.659,3.661l-20,34.641
			c-2.761,4.782-1.123,10.898,3.66,13.66l22.472,12.977C176.287,162.767,176,166.422,176,170s0.287,7.233,0.872,11.043L154.4,194.02
			c-4.783,2.762-6.421,8.878-3.66,13.66l20,34.641c2.761,4.782,8.878,6.422,13.659,3.661l22.582-13.035
			c5.735,4.424,12.158,8.094,19.019,10.866V270c0,5.522,4.477,10,10,10h40c5.522,0,10-4.478,10-10v-26.175
			c6.911-2.771,13.277-6.407,19.037-10.873l22.562,13.028c2.298,1.327,5.026,1.688,7.589,0.999c2.562-0.687,4.746-2.362,6.072-4.659
			l20-34.641C364.021,202.897,362.383,196.781,357.6,194.02z M328.939,223.659l-20.019-11.56c-3.827-2.209-8.65-1.646-11.864,1.388
			c-6.68,6.303-14.734,10.904-23.94,13.678c-4.225,1.272-7.116,5.163-7.116,9.575V260h-20v-23.26c0-4.412-2.892-8.303-7.116-9.575
			c-9.209-2.773-17.259-7.374-23.926-13.674c-3.212-3.036-8.039-3.602-11.867-1.393l-20.03,11.563l-10-17.322l20-11.549
			c3.831-2.212,5.753-6.678,4.727-10.98C196.584,178.768,196,174.25,196,170s0.584-8.768,1.787-13.81
			c1.026-4.303-0.896-8.769-4.727-10.98l-20-11.549l10-17.322l20.03,11.563c3.829,2.209,8.653,1.643,11.867-1.393
			c6.667-6.3,14.716-10.9,23.926-13.674c4.225-1.272,7.116-5.163,7.116-9.575V80h20v23.26c0,4.412,2.892,8.303,7.116,9.575
			c9.206,2.773,17.261,7.375,23.94,13.678c3.214,3.033,8.036,3.597,11.864,1.388l20.019-11.56l10,17.32l-20,11.549
			c-3.829,2.212-5.752,6.677-4.727,10.979C315.415,161.234,316,165.752,316,170s-0.585,8.766-1.787,13.812
			c-1.025,4.302,0.897,8.767,4.727,10.979l20,11.549L328.939,223.659z"/>
	</g>
</g>
<g>
	<g>
		<path fill="#007dc4" d="M299.683,408.362c18.338-26.845,34.555-49.385,49.097-69.594C400.193,267.317,426,231.453,426,170
			C426,76.262,349.738,0,256,0S86,76.262,86,170c0,61.219,25.846,97.188,77.337,168.849c14.487,20.161,30.645,42.652,48.913,69.408
			C160.766,414.61,126,434.619,126,459c0,33.176,66.098,53,130,53s130-19.824,130-53C386,434.778,351.244,414.85,299.683,408.362z
			 M179.578,327.178C129.058,256.868,106,224.778,106,170c0-82.71,67.29-150,150-150s150,67.29,150,150
			c0,55.006-24.548,89.12-73.455,157.086c-17.004,23.632-36.278,50.416-58.614,83.614c-6,8.925-12.003,17.989-17.931,27.08
			c-6.122-9.39-12.23-18.61-18.244-27.543C215.6,377.31,196.463,350.676,179.578,327.178z M337.398,479.398
			C315.629,487.407,285.96,492,256,492c-29.96,0-59.629-4.593-81.399-12.602C151.977,471.076,146,462.416,146,459
			c0-9.342,26.395-27.637,78.961-31.936c7.474,11.179,15.068,22.762,22.627,34.523c1.84,2.862,5.01,4.593,8.412,4.593
			c3.403,0,6.572-1.73,8.412-4.593c7.404-11.519,14.987-23.074,22.588-34.449c52.598,4.473,79,22.596,79,31.862
			C366,462.416,360.022,471.076,337.398,479.398z"/>
	</g>
</g>
<g>
	<g>
		<path fill="#007dc4" d="M469.077,83.424c-2.073-5.118-7.902-7.59-13.023-5.512c-5.118,2.074-7.586,7.904-5.512,13.023
			C460.733,116.085,465.9,142.687,465.9,170s-5.167,53.915-15.358,79.064c-2.074,5.12,0.393,10.95,5.511,13.024
			c1.23,0.499,2.502,0.735,3.752,0.735c3.953,0,7.696-2.359,9.271-6.247C480.24,229.028,485.9,199.9,485.9,170
			C485.9,140.1,480.24,110.972,469.077,83.424z"/>
	</g>
</g>
<g>
	<g>
		<path fill="#007dc4" d="M46.1,170c0-27.313,5.167-53.915,15.358-79.064c2.074-5.12-0.394-10.951-5.513-13.024
			c-5.118-2.076-10.949,0.394-13.023,5.512C31.76,110.972,26.1,140.1,26.1,170c0,29.9,5.66,59.028,16.822,86.576
			c1.576,3.889,5.319,6.247,9.271,6.247c1.25,0,2.522-0.236,3.752-0.735c5.119-2.073,7.587-7.904,5.513-13.023
			C51.267,223.915,46.1,197.313,46.1,170z"/>
	</g>
</g>
<g>
</g>
<g>
</g>
<g>
</g>
<g>
</g>
<g>
</g>
<g>
</g>
<g>
</g>
<g>
</g>
<g>
</g>
<g>
</g>
<g>
</g>
<g>
</g>
<g>
</g>
<g>
</g>
<g>
</g>
</svg>
