<?xml version="1.0" encoding="iso-8859-1"?>
<!-- Generator: Adobe Illustrator 19.0.0, SVG Export Plug-In . SVG Version: 6.00 Build 0)  -->
<svg version="1.1" id="Capa_1" xmlns="http://www.w3.org/2000/svg" xmlns:xlink="http://www.w3.org/1999/xlink" x="0px" y="0px"
	 viewBox="0 0 512 512" style="enable-background:new 0 0 512 512;" xml:space="preserve">
<g>
	<g>
		<path d="M220.64,206.5c-3.9-3.9-10.23-3.9-14.14,0c-3.9,3.91-3.9,10.24,0,14.14c3.91,3.91,10.24,3.91,14.14,0
			C224.55,216.74,224.55,210.41,220.64,206.5z"/>
	</g>
</g>
<g>
	<g>
		<path d="M491.342,157.748c-13.167-30.283-31.89-57.686-55.647-81.442c-23.757-23.758-51.159-42.48-81.442-55.647
			C322.725,6.95,289.668,0,256,0c-33.668,0-66.725,6.95-98.252,20.658c-30.283,13.167-57.686,31.89-81.442,55.647
			c-23.758,23.757-42.48,51.159-55.647,81.442C6.95,189.275,0,222.332,0,256c0,33.668,6.95,66.725,20.658,98.252
			c13.167,30.283,31.89,57.686,55.647,81.442c23.757,23.758,51.159,42.48,81.442,55.647C189.275,505.05,222.332,512,256,512
			c33.668,0,66.725-6.95,98.252-20.658c30.283-13.167,57.686-31.89,81.442-55.647c23.758-23.757,42.48-51.159,55.647-81.442
			C505.05,322.725,512,289.668,512,256C512,222.332,505.05,189.275,491.342,157.748z M266,20.249
			C384.187,25.743,486.257,127.813,491.751,246h-22.997c-1.192-24.808-6.817-49.05-16.779-72.196
			c-10.87-25.257-26.363-48.044-46.049-67.729c-19.686-19.685-42.473-35.179-67.729-46.049C315.05,50.063,290.808,44.438,266,43.246
			V20.249z M246,20.249v22.997c-24.808,1.192-49.05,6.817-72.196,16.779c-25.257,10.87-48.044,26.363-67.729,46.049
			c-19.685,19.686-35.179,42.473-46.049,67.729C50.063,196.95,44.438,221.192,43.246,246H20.249
			C25.743,127.813,127.813,25.743,246,20.249z M245.999,491.75C127.813,486.257,25.743,384.187,20.249,266h22.997
			c1.192,24.808,6.817,49.05,16.779,72.196c10.87,25.257,26.363,48.044,46.049,67.729c19.686,19.685,42.473,35.179,67.729,46.049
			c23.147,9.962,47.389,15.587,72.196,16.779V491.75z M256,406c-5.522,0-10,4.478-10,10v32.727
			C149.127,443.497,68.503,362.873,63.273,266H96c5.522,0,10-4.478,10-10c0-5.522-4.478-10-10-10H63.273
			C68.503,149.127,149.127,68.503,246,63.273V96c0,5.522,4.478,10,10,10c5.522,0,10-4.478,10-10V63.273
			c96.873,5.23,177.498,85.855,182.727,182.727H416c-5.522,0-10,4.478-10,10c0,5.522,4.478,10,10,10h32.727
			c-5.23,96.873-85.855,177.497-182.727,182.727V416C266,410.478,261.522,406,256,406z M266,491.751v-22.997
			c24.808-1.192,49.05-6.817,72.196-16.779c25.257-10.87,48.044-26.363,67.729-46.049c19.685-19.686,35.179-42.473,46.049-67.729
			c9.962-23.147,15.587-47.389,16.779-72.196h22.997C486.257,384.187,384.187,486.257,266,491.751z"/>
	</g>
</g>
<g>
	<g>
		<path d="M378.425,226.298l-18.341-4.583c-1.703-5.142-3.796-10.169-6.259-15.033l9.749-16.246
			c2.361-3.935,1.741-8.972-1.503-12.217l-28.29-28.29c-3.247-3.244-8.283-3.866-12.217-1.503l-16.246,9.749
			c-4.864-2.463-9.892-4.556-15.033-6.259l-4.583-18.341C284.589,129.123,280.589,126,276,126h-40c-4.589,0-8.589,3.123-9.702,7.575
			l-4.583,18.341c-5.142,1.703-10.169,3.796-15.033,6.259l-16.246-9.749c-3.935-2.363-8.973-1.742-12.217,1.503l-28.29,28.29
			c-3.244,3.245-3.864,8.282-1.503,12.217l9.749,16.246c-2.463,4.864-4.556,9.892-6.259,15.033l-18.341,4.583
			C129.123,227.411,126,231.411,126,236v40c0,4.589,3.123,8.589,7.575,9.702l18.341,4.583c1.703,5.142,3.796,10.169,6.259,15.033
			l-9.749,16.246c-2.362,3.936-1.741,8.973,1.504,12.218l28.29,28.28c3.244,3.243,8.278,3.862,12.213,1.504l16.247-9.742
			c4.865,2.464,9.892,4.557,15.035,6.26l4.583,18.341c1.113,4.452,5.113,7.575,9.702,7.575h40c4.589,0,8.589-3.123,9.702-7.575
			l4.583-18.341c5.144-1.703,10.17-3.796,15.035-6.26l16.247,9.742c3.934,2.358,8.968,1.74,12.213-1.504l28.29-28.28
			c3.245-3.245,3.866-8.282,1.504-12.218l-9.749-16.246c2.463-4.864,4.556-9.892,6.259-15.033l18.341-4.583
			c4.452-1.113,7.575-5.113,7.575-9.702v-40C386,231.411,382.877,227.411,378.425,226.298z M366,268.191l-16.274,4.066
			c-3.515,0.879-6.279,3.59-7.228,7.087c-1.999,7.38-4.975,14.527-8.843,21.244c-1.812,3.146-1.777,7.024,0.091,10.137l8.661,14.434
			L325.159,342.4l-14.437-8.656c-3.11-1.866-6.988-1.9-10.134-0.089c-6.717,3.868-13.864,6.844-21.244,8.843
			c-3.497,0.948-6.208,3.713-7.087,7.228L268.191,366h-24.383l-4.066-16.274c-0.879-3.515-3.59-6.279-7.087-7.228
			c-7.38-1.999-14.527-4.975-21.244-8.843c-3.144-1.811-7.021-1.776-10.134,0.089L186.84,342.4l-17.248-17.241l8.661-14.434
			c1.868-3.112,1.902-6.991,0.091-10.137c-3.868-6.717-6.844-13.864-8.843-21.244c-0.948-3.497-3.713-6.208-7.228-7.087L146,268.191
			v-24.383l16.274-4.066c3.515-0.879,6.279-3.59,7.228-7.087c1.999-7.38,4.975-14.527,8.843-21.244
			c1.812-3.146,1.777-7.024-0.091-10.137l-8.661-14.435l17.247-17.247l14.435,8.661c3.113,1.869,6.991,1.903,10.137,0.091
			c6.717-3.868,13.864-6.844,21.244-8.843c3.497-0.948,6.208-3.713,7.087-7.228L243.809,146h24.383l4.066,16.274
			c0.879,3.515,3.59,6.279,7.087,7.228c7.38,1.999,14.527,4.975,21.244,8.843c3.144,1.811,7.024,1.778,10.137-0.091l14.435-8.661
			l17.247,17.247l-8.661,14.435c-1.868,3.112-1.902,6.991-0.091,10.137c3.868,6.717,6.844,13.864,8.843,21.244
			c0.948,3.497,3.713,6.208,7.228,7.087L366,243.809V268.191z"/>
	</g>
</g>
<g>
	<g>
		<path d="M256,226c-16.542,0-30,13.458-30,30s13.458,30,30,30s30-13.458,30-30S272.542,226,256,226z M256,266
			c-5.514,0-10-4.486-10-10c0-5.514,4.486-10,10-10c5.514,0,10,4.486,10,10C266,261.514,261.514,266,256,266z"/>
	</g>
</g>
<g>
	<g>
		<path d="M305.499,206.496c-15.018-15.004-35.749-22.336-56.876-20.111c-5.492,0.578-9.477,5.499-8.898,10.992
			c0.578,5.492,5.492,9.464,10.992,8.898c15.095-1.593,29.916,3.647,40.641,14.364c19.49,19.498,19.49,51.223,0.001,70.719
			c-19.492,19.492-51.217,19.493-70.715,0.003c-10.721-10.729-15.958-25.543-14.368-40.645c0.578-5.493-3.406-10.414-8.898-10.992
			c-5.478-0.578-10.414,3.405-10.992,8.898c-2.224,21.129,5.107,41.859,20.116,56.879c13.649,13.645,31.575,20.467,49.502,20.467
			c17.927-0.001,35.854-6.823,49.499-20.47C332.787,278.204,332.787,233.794,305.499,206.496z"/>
	</g>
</g>
<g>
</g>
<g>
</g>
<g>
</g>
<g>
</g>
<g>
</g>
<g>
</g>
<g>
</g>
<g>
</g>
<g>
</g>
<g>
</g>
<g>
</g>
<g>
</g>
<g>
</g>
<g>
</g>
<g>
</g>
</svg>
