<svg height="48px" viewBox="0 -91 512 512" width="48px" xmlns="http://www.w3.org/2000/svg"><path fill="#42bbe3" d="m362 90v-90h-362v300h63.578125c6.195313 17.457031 22.867187 30 42.421875 30 11.515625 0 22.03125-4.355469 30-11.496094 7.96875 7.144532 18.484375 11.496094 30 11.496094 19.554688 0 36.226562-12.542969 42.421875-30h171.15625c6.195313 17.457031 22.867187 30 42.421875 30s36.226562-12.542969 42.421875-30h47.578125v-99.753906l-33.921875-110.246094zm112.382812 90h-24.621093l-27.761719-22.210938v-37.789062h33.921875zm-82.382812-60v30h-30v-30zm-60-90v150h-76v-150zm-106 0v150h-90v-150zm-120 0v150h-76v-150zm0 270c-8.269531 0-15-6.730469-15-15s6.730469-15 15-15 15 6.730469 15 15-6.730469 15-15 15zm60 0c-8.269531 0-15-6.730469-15-15s6.730469-15 15-15 15 6.730469 15 15-6.730469 15-15 15zm42.421875-30c-6.195313-17.457031-22.867187-30-42.421875-30-11.515625 0-22.03125 4.355469-30 11.496094-7.96875-7.140625-18.484375-11.496094-30-11.496094-19.554688 0-36.226562 12.542969-42.421875 30h-33.578125v-60h302v60zm213.578125 30c-8.269531 0-15-6.730469-15-15s6.730469-15 15-15 15 6.730469 15 15-6.730469 15-15 15zm42.421875-30c-6.195313-17.457031-22.867187-30-42.421875-30s-36.226562 12.542969-42.421875 30h-17.578125v-90h39.738281l37.5 30h42.761719v60zm0 0"/></svg>