<svg height="48px" viewBox="0 -16 512 512" width="48px" xmlns="http://www.w3.org/2000/svg"><path fill="#42bbe3" d="m0 390h211v25.457031l-23.027344 34.542969h-36.972656v30h210v-30h-36.972656l-23.027344-34.542969v-25.457031h211v-390h-512zm287.972656 60h-63.945312l16.972656-25.457031v-34.542969h30v34.542969zm-257.972656-90v-30h452v30zm452-330v270h-452v-270zm0 0"/><path fill="#42bbe3" d="m241 90h-150v150h150zm-30 120h-90v-90h30v30h30v-30h30zm0 0"/><path fill="#42bbe3" d="m301 90h121v30h-121zm0 0"/><path fill="#42bbe3" d="m301 150h121v30h-121zm0 0"/><path fill="#42bbe3" d="m301 210h121v30h-121zm0 0"/></svg>